<svg xmlns="http://www.w3.org/2000/svg" width="103.722" height="103.648" viewBox="0 0 103.722 103.648">
  <g id="Error_Icon" data-name="Error Icon" transform="translate(-1000.78 -1000.877)">
    <g id="Group_1748" data-name="Group 1748" transform="translate(1000.918 1000.999)">
      <path id="Path_180" data-name="Path 180" d="M1055.3,1001.059a51.716,51.716,0,0,0-35.215,11.57,2.1,2.1,0,1,0,2.648,3.247,47.637,47.637,0,1,1-10.72,12.316.526.526,0,0,1,.972.208l.332,2.769a2.15,2.15,0,0,0,2.033,1.927,2.1,2.1,0,0,0,2.137-2.345s-.833-6.944-1.111-9.259a2.04,2.04,0,0,0-1.849-1.787,4.357,4.357,0,0,0-1.289.054l-8.451,1.014a2.1,2.1,0,0,0-1.735,2.758,2.129,2.129,0,0,0,2.289,1.4l2.983-.358a.523.523,0,0,1,.5.8,51.867,51.867,0,1,0,46.473-24.311Z" transform="translate(-1001.057 -1001.121)" fill="#ffffff"/>
      <g id="Group_1747" data-name="Group 1747" transform="translate(11.565 11.523)">
        <path id="Path_182" data-name="Path 182" d="M1091.558,1034.552a40.312,40.312,0,1,0-15.889,67.176,2.1,2.1,0,0,0-1.284-3.989,36.141,36.141,0,1,1,25.076-35.158,2.1,2.1,0,0,0,2.093,2.053h.043a2.1,2.1,0,0,0,2.052-2.137A40.086,40.086,0,0,0,1091.558,1034.552Z" transform="translate(-1023 -1023)" fill="#ffffff"/>
        <path id="Path_183" data-name="Path 183" d="M1146.562,1139.792a2.1,2.1,0,0,0-2.93.436,36.619,36.619,0,0,1-11.915,10.339,2.1,2.1,0,1,0,1.994,3.686,40.845,40.845,0,0,0,13.288-11.53A2.1,2.1,0,0,0,1146.562,1139.792Z" transform="translate(-1074.252 -1078.426)" fill="#ffffff"/>
        <path id="Path_184" data-name="Path 184" d="M1167.436,1109.589a2.1,2.1,0,0,0-2.447,1.671,35.857,35.857,0,0,1-2.894,8.837,2.1,2.1,0,1,0,3.779,1.81,40.039,40.039,0,0,0,3.233-9.872A2.1,2.1,0,0,0,1167.436,1109.589Z" transform="translate(-1089.145 -1064.22)" fill="#ffffff"/>
        <g id="Group_1782" data-name="Group 1782" transform="translate(-2162.319 -1159.55)">
          <g id="Group_1780" data-name="Group 1780" transform="translate(2191.71 1189.001)">
            <path id="Path_196" data-name="Path 196" d="M2212.047,1220.627a11.289,11.289,0,1,1,11.29-11.289A11.3,11.3,0,0,1,2212.047,1220.627Zm0-21.357a10.068,10.068,0,1,0,10.068,10.067A10.079,10.079,0,0,0,2212.047,1199.27Z" transform="translate(-2200.758 -1198.049)" fill="#ffffff" stroke="#ffffff" stroke-width="2"/>
          </g>
          <g id="Group_1781" data-name="Group 1781" transform="translate(2181.614 1178.905)">
            <path id="Path_197" data-name="Path 197" d="M2204.227,1221.676h-2.454a3.112,3.112,0,0,1-3.108-3.108v-2.174a16.523,16.523,0,0,1-3.987-1.65l-1.536,1.536a3.114,3.114,0,0,1-4.4,0l-1.736-1.735a3.114,3.114,0,0,1,0-4.4l1.536-1.536a16.589,16.589,0,0,1-1.65-3.988h-2.173a3.112,3.112,0,0,1-3.108-3.108v-2.454a3.112,3.112,0,0,1,3.108-3.107h2.173a16.573,16.573,0,0,1,1.65-3.988l-1.536-1.537a3.113,3.113,0,0,1,0-4.394l1.736-1.736a3.114,3.114,0,0,1,4.4,0l1.536,1.536a16.577,16.577,0,0,1,3.988-1.651v-2.173a3.112,3.112,0,0,1,3.108-3.108h2.454a3.111,3.111,0,0,1,3.108,3.108v2.173a16.6,16.6,0,0,1,3.988,1.651l1.536-1.536a3.113,3.113,0,0,1,4.4,0l1.735,1.735a3.111,3.111,0,0,1,0,4.4l-1.536,1.536a16.588,16.588,0,0,1,1.651,3.989h2.174a3.112,3.112,0,0,1,3.109,3.107v2.454a3.112,3.112,0,0,1-3.109,3.108H2219.1a16.543,16.543,0,0,1-1.651,3.988l1.536,1.536a3.112,3.112,0,0,1,0,4.4l-1.735,1.735a3.113,3.113,0,0,1-4.4,0l-1.536-1.536a16.527,16.527,0,0,1-3.988,1.65v2.174A3.112,3.112,0,0,1,2204.227,1221.676Zm-9.647-8.312a.6.6,0,0,1,.319.091,15.35,15.35,0,0,0,4.517,1.87.611.611,0,0,1,.47.594v2.649a1.888,1.888,0,0,0,1.887,1.886h2.454a1.888,1.888,0,0,0,1.886-1.886v-2.649a.611.611,0,0,1,.47-.594,15.342,15.342,0,0,0,4.517-1.87h0a.412.412,0,0,1,.047-.026.61.61,0,0,1,.743.156l1.832,1.832a1.889,1.889,0,0,0,2.668,0l1.734-1.735a1.889,1.889,0,0,0,0-2.668l-1.835-1.836a.61.61,0,0,1-.149-.747c.01-.019.021-.037.033-.056a15.32,15.32,0,0,0,1.86-4.5.611.611,0,0,1,.594-.47h2.649a1.888,1.888,0,0,0,1.886-1.887v-2.454a1.888,1.888,0,0,0-1.886-1.886h-2.649a.611.611,0,0,1-.594-.47,15.348,15.348,0,0,0-1.869-4.515.61.61,0,0,1,.087-.752l1.873-1.872a1.889,1.889,0,0,0,0-2.668l-1.735-1.735a1.888,1.888,0,0,0-2.668,0l-1.872,1.872a.614.614,0,0,1-.753.088,15.326,15.326,0,0,0-4.515-1.869.611.611,0,0,1-.47-.594v-2.648a1.888,1.888,0,0,0-1.886-1.886h-2.454a1.888,1.888,0,0,0-1.887,1.886v2.648a.611.611,0,0,1-.47.594,15.348,15.348,0,0,0-4.515,1.869.613.613,0,0,1-.752-.088l-1.872-1.872a1.888,1.888,0,0,0-2.668,0l-1.736,1.735a1.89,1.89,0,0,0,0,2.669l1.872,1.872a.61.61,0,0,1,.088.752,15.343,15.343,0,0,0-1.869,4.515.611.611,0,0,1-.594.47h-2.649a1.889,1.889,0,0,0-1.887,1.886v2.454a1.889,1.889,0,0,0,1.887,1.887h2.649a.611.611,0,0,1,.594.47,15.353,15.353,0,0,0,1.87,4.516.61.61,0,0,1-.129.79l-1.833,1.833a1.89,1.89,0,0,0,0,2.668l1.736,1.735a1.888,1.888,0,0,0,2.668,0l1.832-1.832A.611.611,0,0,1,2194.58,1213.364Z" transform="translate(-2181.614 -1178.905)" fill="#ffffff" stroke="#ffffff" stroke-width="2"/>
          </g>
        </g>
      </g>
    </g>
  </g>
</svg>
