<svg xmlns="http://www.w3.org/2000/svg" width="26.984" height="26.984" viewBox="0 0 26.984 26.984">
  <path id="codepen-brands" d="M26.472,8.418,14.139.2a1.172,1.172,0,0,0-1.295,0L.512,8.418A1.179,1.179,0,0,0,0,9.381V17.6a1.179,1.179,0,0,0,.512.964l12.332,8.223a1.172,1.172,0,0,0,1.295,0l12.332-8.223a1.179,1.179,0,0,0,.512-.964V9.381A1.179,1.179,0,0,0,26.472,8.418Zm-11.82-5.09,9.08,6.053-4.051,2.71L14.651,8.734Zm-2.319,0V8.734L7.3,12.092,3.252,9.381ZM2.319,11.55l2.906,1.942L2.319,15.434ZM12.332,23.656,3.252,17.6,7.3,14.892l5.029,3.358Zm1.159-7.424L9.4,13.492l4.1-2.741,4.1,2.741Zm1.159,7.424V18.25l5.029-3.358,4.051,2.71Zm10.013-8.222-2.906-1.942,2.906-1.942v3.885Z" transform="translate(0 -0.001)" fill="#2f69bb"/>
</svg>
