<svg xmlns="http://www.w3.org/2000/svg" width="1088" height="481" viewBox="0 0 1088 481">
  <g id="Design_Background" data-name="Design Background" transform="translate(-689 -1914)">
    <path id="Rectangle_39" data-name="Rectangle 39" d="M3,0H40a0,0,0,0,1,0,0V481a0,0,0,0,1,0,0H3a3,3,0,0,1-3-3V3A3,3,0,0,1,3,0Z" transform="translate(727 1914)" fill="#2d2932"/>
    <path id="Rectangle_41" data-name="Rectangle 41" d="M3,0H20a0,0,0,0,1,0,0V481a0,0,0,0,1,0,0H3a3,3,0,0,1-3-3V3A3,3,0,0,1,3,0Z" transform="translate(689 1914)" fill="#2d2932"/>
    <path id="Rectangle_42" data-name="Rectangle 42" d="M3,0H992a0,0,0,0,1,0,0V481a0,0,0,0,1,0,0H3a3,3,0,0,1-3-3V3A3,3,0,0,1,3,0Z" transform="translate(785 1914)" fill="#2d2932"/>
  </g>
</svg>
