<svg xmlns="http://www.w3.org/2000/svg" width="23.611" height="23.611" viewBox="0 0 23.611 23.611">
  <path id="behance-square-brands" d="M9.829,45.755c0,1.017-.738,1.339-1.644,1.339H5.808V44.306H8.232c.98.005,1.6.411,1.6,1.449Zm-.406-4.337c0-.933-.722-1.154-1.523-1.154H5.813v2.361h2.25C8.859,42.625,9.423,42.277,9.423,41.418ZM16.4,42.641a1.571,1.571,0,0,0-1.671,1.565H18A1.5,1.5,0,0,0,16.4,42.641Zm7.215-8.111V53.081a2.53,2.53,0,0,1-2.53,2.53H2.53A2.53,2.53,0,0,1,0,53.081V34.53A2.53,2.53,0,0,1,2.53,32H21.081A2.53,2.53,0,0,1,23.611,34.53Zm-9.291,5.534h4.1v-1h-4.1Zm-2.266,5.813a2.62,2.62,0,0,0-1.845-2.719,1.967,1.967,0,0,0,1.381-1.95c0-2.013-1.5-2.5-3.236-2.5H3.584V48.823H8.49C10.33,48.812,12.053,47.932,12.053,45.877Zm7.974-.78c0-2.166-1.27-3.974-3.563-3.974A3.678,3.678,0,0,0,12.717,45a3.571,3.571,0,0,0,3.747,3.847A3.268,3.268,0,0,0,19.9,46.382H18.119a1.667,1.667,0,0,1-1.592.954,1.654,1.654,0,0,1-1.8-1.86h5.281c.005-.121.016-.253.016-.379Z" transform="translate(0 -32)" fill="#2f69bb"/>
</svg>
