<svg xmlns="http://www.w3.org/2000/svg" width="790" height="239" viewBox="0 0 790 239">
  <g id="Dot_Matrix" data-name="Dot Matrix" transform="translate(-13 -734)">
    <g id="Group_14" data-name="Group 14" transform="translate(-122 480.788)" opacity="0.13">
      <path id="Path_32" data-name="Path 32" d="M0,303.212H260" transform="translate(140 -44)" fill="none" stroke="#2f69bb" stroke-linecap="round" stroke-width="10" stroke-dasharray="0 20"/>
      <path id="Path_33" data-name="Path 33" d="M0,303.212H260" transform="translate(140 -21)" fill="none" stroke="#2f69bb" stroke-linecap="round" stroke-width="10" stroke-dasharray="0 20"/>
      <path id="Path_24" data-name="Path 24" d="M0,303.212H260" transform="translate(140)" fill="none" stroke="#2f69bb" stroke-linecap="round" stroke-width="10" stroke-dasharray="0 20"/>
      <path id="Path_25" data-name="Path 25" d="M0,303.212H260" transform="translate(140 23)" fill="none" stroke="#2f69bb" stroke-linecap="round" stroke-width="10" stroke-dasharray="0 20"/>
      <path id="Path_26" data-name="Path 26" d="M0,303.212H260" transform="translate(140 46)" fill="none" stroke="#2f69bb" stroke-linecap="round" stroke-width="10" stroke-dasharray="0 20"/>
      <path id="Path_27" data-name="Path 27" d="M0,303.212H260" transform="translate(140 69)" fill="none" stroke="#2f69bb" stroke-linecap="round" stroke-width="10" stroke-dasharray="0 20"/>
      <path id="Path_28" data-name="Path 28" d="M0,303.212H260" transform="translate(140 92)" fill="none" stroke="#2f69bb" stroke-linecap="round" stroke-width="10" stroke-dasharray="0 20"/>
      <path id="Path_29" data-name="Path 29" d="M0,303.212H260" transform="translate(140 115)" fill="none" stroke="#2f69bb" stroke-linecap="round" stroke-width="10" stroke-dasharray="0 20"/>
      <path id="Path_30" data-name="Path 30" d="M0,303.212H260" transform="translate(140 138)" fill="none" stroke="#2f69bb" stroke-linecap="round" stroke-width="10" stroke-dasharray="0 20"/>
      <path id="Path_31" data-name="Path 31" d="M0,303.212H260" transform="translate(140 161)" fill="none" stroke="#2f69bb" stroke-linecap="round" stroke-width="10" stroke-dasharray="0 20"/>
      <path id="Path_32-2" data-name="Path 32" d="M0,303.212H260" transform="translate(140 184)" fill="none" stroke="#2f69bb" stroke-linecap="round" stroke-width="10" stroke-dasharray="0 20"/>
    </g>
    <g id="Group_15" data-name="Group 15" transform="translate(138 480.788)" opacity="0.13">
      <path id="Path_32-3" data-name="Path 32" d="M0,303.212H260" transform="translate(140 -44)" fill="none" stroke="#2f69bb" stroke-linecap="round" stroke-width="10" stroke-dasharray="0 20"/>
      <path id="Path_33-2" data-name="Path 33" d="M0,303.212H260" transform="translate(140 -21)" fill="none" stroke="#2f69bb" stroke-linecap="round" stroke-width="10" stroke-dasharray="0 20"/>
      <path id="Path_24-2" data-name="Path 24" d="M0,303.212H260" transform="translate(140)" fill="none" stroke="#2f69bb" stroke-linecap="round" stroke-width="10" stroke-dasharray="0 20"/>
      <path id="Path_25-2" data-name="Path 25" d="M0,303.212H260" transform="translate(140 23)" fill="none" stroke="#2f69bb" stroke-linecap="round" stroke-width="10" stroke-dasharray="0 20"/>
      <path id="Path_26-2" data-name="Path 26" d="M0,303.212H260" transform="translate(140 46)" fill="none" stroke="#2f69bb" stroke-linecap="round" stroke-width="10" stroke-dasharray="0 20"/>
      <path id="Path_27-2" data-name="Path 27" d="M0,303.212H260" transform="translate(140 69)" fill="none" stroke="#2f69bb" stroke-linecap="round" stroke-width="10" stroke-dasharray="0 20"/>
      <path id="Path_28-2" data-name="Path 28" d="M0,303.212H260" transform="translate(140 92)" fill="none" stroke="#2f69bb" stroke-linecap="round" stroke-width="10" stroke-dasharray="0 20"/>
      <path id="Path_29-2" data-name="Path 29" d="M0,303.212H260" transform="translate(140 115)" fill="none" stroke="#2f69bb" stroke-linecap="round" stroke-width="10" stroke-dasharray="0 20"/>
      <path id="Path_30-2" data-name="Path 30" d="M0,303.212H260" transform="translate(140 138)" fill="none" stroke="#2f69bb" stroke-linecap="round" stroke-width="10" stroke-dasharray="0 20"/>
      <path id="Path_31-2" data-name="Path 31" d="M0,303.212H260" transform="translate(140 161)" fill="none" stroke="#2f69bb" stroke-linecap="round" stroke-width="10" stroke-dasharray="0 20"/>
      <path id="Path_32-4" data-name="Path 32" d="M0,303.212H260" transform="translate(140 184)" fill="none" stroke="#2f69bb" stroke-linecap="round" stroke-width="10" stroke-dasharray="0 20"/>
    </g>
    <g id="Group_16" data-name="Group 16" transform="translate(398 479.788)" opacity="0.13">
      <path id="Path_32-5" data-name="Path 32" d="M0,303.212H260" transform="translate(140 -44)" fill="none" stroke="#2f69bb" stroke-linecap="round" stroke-width="10" stroke-dasharray="0 20"/>
      <path id="Path_33-3" data-name="Path 33" d="M0,303.212H260" transform="translate(140 -21)" fill="none" stroke="#2f69bb" stroke-linecap="round" stroke-width="10" stroke-dasharray="0 20"/>
      <path id="Path_24-3" data-name="Path 24" d="M0,303.212H260" transform="translate(140)" fill="none" stroke="#2f69bb" stroke-linecap="round" stroke-width="10" stroke-dasharray="0 20"/>
      <path id="Path_25-3" data-name="Path 25" d="M0,303.212H260" transform="translate(140 23)" fill="none" stroke="#2f69bb" stroke-linecap="round" stroke-width="10" stroke-dasharray="0 20"/>
      <path id="Path_26-3" data-name="Path 26" d="M0,303.212H260" transform="translate(140 46)" fill="none" stroke="#2f69bb" stroke-linecap="round" stroke-width="10" stroke-dasharray="0 20"/>
      <path id="Path_27-3" data-name="Path 27" d="M0,303.212H260" transform="translate(140 69)" fill="none" stroke="#2f69bb" stroke-linecap="round" stroke-width="10" stroke-dasharray="0 20"/>
      <path id="Path_28-3" data-name="Path 28" d="M0,303.212H260" transform="translate(140 92)" fill="none" stroke="#2f69bb" stroke-linecap="round" stroke-width="10" stroke-dasharray="0 20"/>
      <path id="Path_29-3" data-name="Path 29" d="M0,303.212H260" transform="translate(140 115)" fill="none" stroke="#2f69bb" stroke-linecap="round" stroke-width="10" stroke-dasharray="0 20"/>
      <path id="Path_30-3" data-name="Path 30" d="M0,303.212H260" transform="translate(140 138)" fill="none" stroke="#2f69bb" stroke-linecap="round" stroke-width="10" stroke-dasharray="0 20"/>
      <path id="Path_31-3" data-name="Path 31" d="M0,303.212H260" transform="translate(140 161)" fill="none" stroke="#2f69bb" stroke-linecap="round" stroke-width="10" stroke-dasharray="0 20"/>
      <path id="Path_32-6" data-name="Path 32" d="M0,303.212H260" transform="translate(140 184)" fill="none" stroke="#2f69bb" stroke-linecap="round" stroke-width="10" stroke-dasharray="0 20"/>
    </g>
  </g>
</svg>
