<svg xmlns="http://www.w3.org/2000/svg" width="23.611" height="23.611" viewBox="0 0 23.611 23.611">
  <path id="linkedin-brands" d="M21.924,32H1.681A1.694,1.694,0,0,0,0,33.7V53.908a1.694,1.694,0,0,0,1.681,1.7H21.924a1.7,1.7,0,0,0,1.686-1.7V33.7A1.7,1.7,0,0,0,21.924,32ZM7.136,52.238h-3.5V40.97h3.5V52.238ZM5.386,39.431A2.029,2.029,0,1,1,7.415,37.4,2.03,2.03,0,0,1,5.386,39.431ZM20.253,52.238h-3.5V46.757c0-1.307-.026-2.988-1.818-2.988-1.824,0-2.1,1.423-2.1,2.893v5.576h-3.5V40.97h3.357v1.539h.047a3.686,3.686,0,0,1,3.315-1.818c3.542,0,4.2,2.335,4.2,5.37Z" transform="translate(0 -32)" fill="#2f69bb"/>
</svg>
